<svg xmlns="http://www.w3.org/2000/svg" xmlns:xlink="http://www.w3.org/1999/xlink" viewBox="0 0 320 150"><defs><style>.cls-1{fill-rule:evenodd;fill:url(#linear-gradient);}.cls-2{fill:#293856;}</style><linearGradient id="linear-gradient" x1="36.82" y1="100.45" x2="36.82" y2="38.07" gradientUnits="userSpaceOnUse"><stop offset="0" stop-color="#0052cc"/><stop offset="1" stop-color="#2684ff"/></linearGradient></defs><g id="Logos"><path class="cls-1" d="M60.59,38.07H13a7.42,7.42,0,0,0-7.42,7.41V93A7.42,7.42,0,0,0,13,100.45H60.59A7.42,7.42,0,0,0,68,93V45.48A7.42,7.42,0,0,0,60.59,38.07ZM32.5,83A2.48,2.48,0,0,1,30,85.47H19.6A2.47,2.47,0,0,1,17.14,83V52.05a2.47,2.47,0,0,1,2.46-2.47H30a2.48,2.48,0,0,1,2.47,2.47Zm24-14.21A2.47,2.47,0,0,1,54,71.26H43.6a2.48,2.48,0,0,1-2.47-2.47V52.05a2.48,2.48,0,0,1,2.47-2.47H54a2.47,2.47,0,0,1,2.46,2.47Z"/><path class="cls-2" d="M134.92,42.64V54.7H120.63v45.75H106.85V54.7H92.56V42.64Z"/><path class="cls-2" d="M152.46,100.45H139.72v-45h12.74v8.62c2.42-6.07,6.29-9.68,13.18-9.24V68.16c-9-.7-13.18,1.5-13.18,8.71Z"/><path class="cls-2" d="M235.24,100.8c-8.35,0-13.6-4-13.6-13.46V38.07h12.83V85.58c0,2.73,1.8,3.7,4,3.7a14.08,14.08,0,0,0,1.9-.09v11.09A18.75,18.75,0,0,1,235.24,100.8Z"/><path class="cls-2" d="M262,100.8c-8.35,0-13.61-4-13.61-13.46V38.07h12.83V85.58c0,2.73,1.81,3.7,4.05,3.7a13.86,13.86,0,0,0,1.89-.09v11.09A18.66,18.66,0,0,1,262,100.8Z"/><path class="cls-2" d="M273.31,77.93c0-13.9,8-23.41,21.78-23.41S316.7,64,316.7,77.93s-7.92,23.58-21.61,23.58S273.31,91.74,273.31,77.93Zm12.49,0c0,6.77,2.84,12.14,9.29,12.14s9.13-5.37,9.13-12.14-2.75-12-9.13-12S285.8,71.15,285.8,77.93Z"/><path class="cls-2" d="M182.84,82a105.84,105.84,0,0,0,10.74.63c9.76,0,18-2.62,18-12.07,0-9.17-8.47-16.06-18.66-16.06-13.72,0-22.51,9.95-22.51,23.85,0,14.43,7.58,23,24.71,23A41.08,41.08,0,0,0,210,98.69V87.91c-4.4,1.41-9.35,2.81-14.43,2.81C188.75,90.72,184,88.48,182.84,82Zm9.82-17.68c3.61,0,6.51,2.45,6.51,5.8,0,4.31-4.55,5.66-9.79,5.66a44.69,44.69,0,0,1-6.66-.53,15.16,15.16,0,0,1,1.77-6A9.43,9.43,0,0,1,192.66,64.34Z"/></g></svg>